<svg width="31" height="33" viewBox="0 0 31 33" fill="none" xmlns="http://www.w3.org/2000/svg">
<path d="M5.11458 28.7916C4.53125 28.7916 4.03298 28.585 3.61979 28.1718C3.20659 27.7587 3 27.2604 3 26.6771V6.11458C3 5.53125 3.20659 5.03299 3.61979 4.61979C4.03298 4.2066 4.53125 4 5.11458 4H25.6771C26.2604 4 26.7587 4.2066 27.1719 4.61979C27.5851 5.03299 27.7917 5.53125 27.7917 6.11458V26.6771C27.7917 27.2604 27.5851 27.7587 27.1719 28.1718C26.7587 28.585 26.2604 28.7916 25.6771 28.7916H5.11458ZM5.11458 27.151H25.6771C25.8229 27.151 25.9384 27.1085 26.0234 27.0234C26.1085 26.9383 26.151 26.8229 26.151 26.6771V6.11458C26.151 5.96875 26.1085 5.8533 26.0234 5.76823C25.9384 5.68316 25.8229 5.64063 25.6771 5.64063H5.11458C4.96875 5.64063 4.8533 5.68316 4.76823 5.76823C4.68316 5.8533 4.64062 5.96875 4.64062 6.11458V26.6771C4.64062 26.8229 4.68316 26.9383 4.76823 27.0234C4.8533 27.1085 4.96875 27.151 5.11458 27.151ZM8.72391 23.3958H10.401V16.3229H8.72391V23.3958ZM20.3906 23.3958H22.0677V8.66667H20.3906V23.3958ZM14.5573 23.3958H16.2344V19.4218H14.5573V23.3958ZM14.5573 16.3229H16.2344V13.9531H14.5573V16.3229ZM4.64062 27.151C4.64062 27.151 4.64062 27.1085 4.64062 27.0234C4.64062 26.9383 4.64062 26.8229 4.64062 26.6771V6.11458C4.64062 5.96875 4.64062 5.8533 4.64062 5.76823C4.64062 5.68316 4.64062 5.64063 4.64062 5.64063C4.64062 5.64063 4.64062 5.68316 4.64062 5.76823C4.64062 5.8533 4.64062 5.96875 4.64062 6.11458V26.6771C4.64062 26.8229 4.64062 26.9383 4.64062 27.0234C4.64062 27.1085 4.64062 27.151 4.64062 27.151Z" fill="#F38BA8"/>
</svg>
