<svg width="32" height="33" viewBox="0 0 32 33" fill="none" xmlns="http://www.w3.org/2000/svg">
<path d="M28 4H3V29H28V4Z" fill="#F38BA8"/>
<path d="M19.7936 23.5313C20.2972 24.3536 20.9524 24.9579 22.1111 24.9579C23.0845 24.9579 23.7063 24.4714 23.7063 23.7992C23.7063 22.9937 23.0674 22.7083 21.996 22.2397L21.4087 21.9877C19.7135 21.2655 18.5873 20.3607 18.5873 18.448C18.5873 16.6861 19.9297 15.3448 22.0278 15.3448C23.5214 15.3448 24.5952 15.8647 25.369 17.2258L23.5397 18.4004C23.1369 17.6782 22.7024 17.3936 22.0278 17.3936C21.3397 17.3936 20.9036 17.8302 20.9036 18.4004C20.9036 19.1052 21.3401 19.3905 22.348 19.827L22.9353 20.0786C24.9313 20.9345 26.0583 21.8071 26.0583 23.769C26.0583 25.8841 24.3968 27.0429 22.1655 27.0429C19.9837 27.0429 18.5742 26.0032 17.8845 24.6405L19.7936 23.5313ZM11.4948 23.7349C11.8639 24.3897 12.1996 24.9433 13.0067 24.9433C13.7786 24.9433 14.2655 24.6413 14.2655 23.4671V15.479H16.6147V23.4988C16.6147 25.9313 15.1885 27.0385 13.1067 27.0385C11.2258 27.0385 10.1365 26.0651 9.58252 24.8927L11.4948 23.7349Z" fill="#181825"/>
</svg>
