<svg width="27" height="27" viewBox="0 0 27 27" fill="none" xmlns="http://www.w3.org/2000/svg">
<path d="M3.9375 22.5C3.4875 22.5 3.09375 22.3312 2.75625 21.9937C2.41875 21.6562 2.25 21.2625 2.25 20.8125V6.1875C2.25 5.7375 2.41875 5.34375 2.75625 5.00625C3.09375 4.66875 3.4875 4.5 3.9375 4.5H23.0625C23.5125 4.5 23.9062 4.66875 24.2437 5.00625C24.5812 5.34375 24.75 5.7375 24.75 6.1875V20.8125C24.75 21.2625 24.5812 21.6562 24.2437 21.9937C23.9062 22.3312 23.5125 22.5 23.0625 22.5H3.9375ZM13.5 13.8375C13.5938 13.8375 13.6734 13.8234 13.7391 13.7953C13.8047 13.7672 13.875 13.7344 13.95 13.6969L22.7812 7.93125C22.875 7.875 22.9453 7.8 22.9922 7.70625C23.0391 7.6125 23.0625 7.50937 23.0625 7.39687C23.0625 7.15312 22.9547 6.96094 22.7391 6.82031C22.5234 6.67969 22.3031 6.68437 22.0781 6.83437L13.5 12.3187L4.95 6.83437C4.725 6.68437 4.5 6.675 4.275 6.80625C4.05 6.9375 3.9375 7.125 3.9375 7.36875C3.9375 7.48125 3.96563 7.58906 4.02188 7.69219C4.07812 7.79531 4.14375 7.875 4.21875 7.93125L13.05 13.6969C13.125 13.7344 13.1953 13.7672 13.2609 13.7953C13.3266 13.8234 13.4062 13.8375 13.5 13.8375Z" fill="#181825"/>
</svg>
