<svg width="764" height="371" viewBox="0 0 764 371" fill="none" xmlns="http://www.w3.org/2000/svg">
<g clip-path="url(#clip0_3_2)">
<path d="M362.268 42.4429C364.349 42.4429 366.036 40.7918 366.036 38.7551C366.036 36.7183 364.349 35.0672 362.268 35.0672C360.188 35.0672 358.501 36.7183 358.501 38.7551C358.501 40.7918 360.188 42.4429 362.268 42.4429Z" fill="#F5C2E7"/>
<path d="M243.97 161.93C244.803 161.93 245.477 161.27 245.477 160.455C245.477 159.64 244.803 158.98 243.97 158.98C243.138 158.98 242.464 159.64 242.464 160.455C242.464 161.27 243.138 161.93 243.97 161.93Z" fill="#F5C2E7"/>
<path d="M466.25 231.262C467.082 231.262 467.757 230.602 467.757 229.787C467.757 228.972 467.082 228.312 466.25 228.312C465.418 228.312 464.743 228.972 464.743 229.787C464.743 230.602 465.418 231.262 466.25 231.262Z" fill="#F5C2E7"/>
<path d="M73.6819 212.823C74.5142 212.823 75.1889 212.162 75.1889 211.348C75.1889 210.533 74.5142 209.872 73.6819 209.872C72.8496 209.872 72.1749 210.533 72.1749 211.348C72.1749 212.162 72.8496 212.823 73.6819 212.823Z" fill="#F5C2E7"/>
<path d="M661.404 160.455C662.236 160.455 662.911 159.794 662.911 158.98C662.911 158.165 662.236 157.505 661.404 157.505C660.571 157.505 659.897 158.165 659.897 158.98C659.897 159.794 660.571 160.455 661.404 160.455Z" fill="#F5C2E7"/>
<path d="M177.663 175.944C178.496 175.944 179.17 175.283 179.17 174.469C179.17 173.654 178.496 172.994 177.663 172.994C176.831 172.994 176.156 173.654 176.156 174.469C176.156 175.283 176.831 175.944 177.663 175.944Z" fill="#F5C2E7"/>
<path d="M424.808 146.441C425.64 146.441 426.315 145.781 426.315 144.966C426.315 144.151 425.64 143.491 424.808 143.491C423.976 143.491 423.301 144.151 423.301 144.966C423.301 145.781 423.976 146.441 424.808 146.441Z" fill="#F5C2E7"/>
<path d="M474.538 40.2302C475.371 40.2302 476.045 39.5698 476.045 38.7551C476.045 37.9404 475.371 37.2799 474.538 37.2799C473.706 37.2799 473.031 37.9404 473.031 38.7551C473.031 39.5698 473.706 40.2302 474.538 40.2302Z" fill="#F5C2E7"/>
<path d="M161.087 212.823H159.58V213.56H161.087V212.823Z" fill="#F5C2E7"/>
<path d="M205.543 99.9738H204.036V100.711H205.543V99.9738Z" fill="#F5C2E7"/>
<path d="M314.045 184.057H312.538V184.795H314.045V184.057Z" fill="#F5C2E7"/>
<path d="M601.878 216.511H600.371V217.248H601.878V216.511Z" fill="#F5C2E7"/>
<path d="M512.213 103.662H510.706V104.399H512.213V103.662Z" fill="#F5C2E7"/>
<path d="M172.254 268.241H169.602V370.766H172.254V268.241Z" fill="#313244"/>
<path d="M196.725 250.329C196.894 286.179 171.127 315.359 171.127 315.359C171.127 315.359 145.086 286.413 144.917 250.562C144.749 214.712 170.516 185.532 170.516 185.532C170.516 185.532 196.556 214.478 196.725 250.329Z" fill="#313244"/>
<path d="M139.525 237.847H136.088V370.766H139.525V237.847Z" fill="#313244"/>
<path d="M171.251 223.808C171.47 270.287 138.064 308.117 138.064 308.117C138.064 308.117 104.303 270.59 104.085 224.111C103.866 177.633 137.271 139.803 137.271 139.803C137.271 139.803 171.032 177.33 171.251 223.808Z" fill="#313244"/>
<path d="M539.203 268.241H536.552V370.766H539.203V268.241Z" fill="#F5E0DC"/>
<path d="M563.674 281.307C563.843 317.157 538.076 346.337 538.076 346.337C538.076 346.337 512.036 317.391 511.867 281.541C511.698 245.69 537.465 216.511 537.465 216.511C537.465 216.511 563.506 245.456 563.674 281.307Z" fill="#313244"/>
<path d="M108.961 268.241H106.309V370.766H108.961V268.241Z" fill="#313244"/>
<path d="M133.432 250.329C133.601 286.179 107.834 315.359 107.834 315.359C107.834 315.359 81.7931 286.413 81.6243 250.562C81.4555 214.712 107.223 185.532 107.223 185.532C107.223 185.532 133.263 214.478 133.432 250.329Z" fill="#313244"/>
<path d="M342.543 268.241H339.891V370.766H342.543V268.241Z" fill="#313244"/>
<path d="M367.014 250.329C367.182 286.179 341.415 315.359 341.415 315.359C341.415 315.359 315.375 286.413 315.206 250.562C315.037 214.712 340.804 185.532 340.804 185.532C340.804 185.532 366.845 214.478 367.014 250.329Z" fill="#313244"/>
<path d="M309.814 237.847H306.376V370.766H309.814V237.847Z" fill="#313244"/>
<path d="M341.539 223.808C341.758 270.287 308.353 308.117 308.353 308.117C308.353 308.117 274.592 270.59 274.373 224.111C274.154 177.633 307.56 139.803 307.56 139.803C307.56 139.803 341.321 177.33 341.539 223.808Z" fill="#313244"/>
<path d="M279.249 268.241H276.598V370.766H279.249V268.241Z" fill="#313244"/>
<path d="M303.721 250.329C303.889 286.179 278.122 315.359 278.122 315.359C278.122 315.359 252.082 286.413 251.913 250.562C251.744 214.712 277.511 185.532 277.511 185.532C277.511 185.532 303.552 214.478 303.721 250.329Z" fill="#313244"/>
<path d="M556.348 315.987L512.04 276.107C511.92 277.899 511.858 279.711 511.867 281.541C512.036 317.391 538.076 346.337 538.076 346.337C545.658 337.154 551.815 326.928 556.348 315.987Z" fill="#F5E0DC"/>
<path d="M226.532 361.621C228.05 367.114 233.25 370.516 233.25 370.516C233.25 370.516 235.988 365.012 234.47 359.519C232.952 354.026 227.752 350.623 227.752 350.623C227.752 350.623 225.014 356.128 226.532 361.621Z" fill="#313244"/>
<path d="M228.763 360.44C232.928 364.41 233.437 370.512 233.437 370.512C233.437 370.512 227.192 370.178 223.026 366.209C218.861 362.239 218.352 356.137 218.352 356.137C218.352 356.137 224.597 356.471 228.763 360.44Z" fill="#313244"/>
<path d="M440.523 361.621C442.041 367.114 447.241 370.516 447.241 370.516C447.241 370.516 449.979 365.012 448.461 359.519C446.943 354.026 441.743 350.623 441.743 350.623C441.743 350.623 439.005 356.128 440.523 361.621Z" fill="#F5E0DC"/>
<path d="M442.754 360.44C446.919 364.41 447.428 370.512 447.428 370.512C447.428 370.512 441.183 370.178 437.017 366.209C432.852 362.239 432.343 356.137 432.343 356.137C432.343 356.137 438.588 356.471 442.754 360.44Z" fill="#F5E0DC"/>
<path d="M57.7502 361.621C59.2683 367.114 64.4681 370.516 64.4681 370.516C64.4681 370.516 67.2066 365.012 65.6885 359.519C64.1704 354.026 58.9706 350.623 58.9706 350.623C58.9706 350.623 56.2321 356.128 57.7502 361.621Z" fill="#313244"/>
<path d="M59.981 360.44C64.1466 364.41 64.6554 370.512 64.6554 370.512C64.6554 370.512 58.4104 370.178 54.2447 366.209C50.079 362.239 49.5702 356.137 49.5702 356.137C49.5702 356.137 55.8153 356.471 59.981 360.44Z" fill="#313244"/>
<path d="M291.851 162.788L364.571 270.225C366.195 263.712 367.015 257.032 367.014 250.329C366.931 232.847 360.697 217.009 354.33 205.366L350.966 206.184L354.13 205.003C350.381 198.083 345.915 191.559 340.804 185.532C340.804 185.532 338.949 187.635 336.238 191.4C326.685 161.064 307.56 139.803 307.56 139.803C301.591 146.96 296.331 154.656 291.851 162.788Z" fill="#F5E0DC"/>
<path opacity="0.1" d="M710.252 366.419C710.827 366.419 711.379 366.195 711.785 365.797C712.192 365.399 712.42 364.859 712.42 364.296C712.42 363.734 712.192 363.194 711.785 362.796C711.379 362.398 710.827 362.174 710.252 362.174H692.425C693 363.3 693.094 364.603 692.688 365.797C692.281 366.991 691.407 367.978 690.257 368.541C690.257 369.104 690.485 369.644 690.892 370.042C691.298 370.44 691.85 370.664 692.425 370.664H710.252C710.827 370.664 711.379 370.44 711.785 370.042C712.192 369.644 712.42 369.104 712.42 368.541C712.42 367.978 712.192 367.438 711.785 367.04C711.379 366.642 710.827 366.419 710.252 366.419Z" fill="#F5C2E7"/>
<path d="M667.88 362.039C668.185 373.614 661.033 370.664 652.362 370.664C643.691 370.664 636.539 372.139 636.48 362.039C636.451 357.066 643.561 355.984 652.232 355.984C660.903 355.984 667.75 357.068 667.88 362.039Z" fill="#313244"/>
<path d="M688.166 366.614C688.026 366.541 687.874 366.493 687.716 366.472C686.93 366.35 686.15 366.187 685.381 365.983C684.609 365.778 683.899 365.392 683.314 364.858C683.096 364.607 682.852 364.378 682.586 364.175C682.451 364.075 682.29 364.016 682.121 364.004C681.953 363.992 681.785 364.029 681.637 364.108C681.606 364.132 681.578 364.158 681.553 364.186C681.445 364.117 681.337 364.047 681.23 363.978C680.656 363.608 680.079 363.242 679.5 362.881L679.477 362.866C679.493 362.777 679.494 362.686 679.478 362.597C679.377 362.304 679.173 362.055 678.901 361.896C679.649 361.889 680.4 361.822 681.143 361.745C681.851 361.757 682.535 361.496 683.047 361.017C683.124 360.934 683.17 360.828 683.179 360.716C683.18 360.487 682.939 360.337 682.722 360.25C682.434 360.135 682.134 360.048 681.828 359.992C681.614 359.963 681.402 359.919 681.194 359.862C681.009 359.796 680.83 359.714 680.66 359.616C680.292 359.417 679.923 359.219 679.555 359.02C679.398 358.946 679.254 358.848 679.128 358.73C678.94 358.536 678.857 358.261 678.666 358.07C678.49 357.894 677.778 357.662 677.676 358.023C677.635 358.165 677.789 358.323 677.808 358.482C677.561 358.331 677.306 358.193 677.043 358.071C677.057 358.039 677.076 358.01 677.089 357.977C675.866 357.018 674.895 355.787 674.256 354.387C674.365 354.39 674.475 354.396 674.584 354.396C674.771 354.412 674.958 354.368 675.115 354.269C675.18 354.211 675.231 354.139 675.263 354.06C675.296 353.98 675.309 353.894 675.303 353.808C675.289 353.637 675.246 353.469 675.176 353.311C675.02 352.839 674.771 352.402 674.443 352.023C674.125 351.723 673.763 351.471 673.368 351.276L673.305 351.241C673.278 351.162 673.253 351.081 673.221 351.003C672.983 350.519 672.714 350.051 672.415 349.6C671.994 348.845 671.684 348.037 671.494 347.198C671.423 346.687 671.223 346.201 670.912 345.785C670.337 345.165 669.351 345.18 668.5 345.274C668.015 345.328 667.532 345.399 667.05 345.472C667.046 345.461 667.045 345.448 667.04 345.436C666.98 345.325 666.942 345.203 666.929 345.078C666.941 344.975 666.964 344.874 666.998 344.777C667.024 344.655 667.018 344.529 666.981 344.41C666.944 344.292 666.877 344.184 666.787 344.097C666.767 344.078 666.747 344.057 666.727 344.036C666.78 343.914 666.829 343.79 666.873 343.665C666.913 343.619 666.943 343.566 666.961 343.508C666.98 343.45 666.986 343.389 666.979 343.329C667.067 343.027 667.113 342.714 667.117 342.4C667.018 341.706 666.992 341.004 667.041 340.305C667.016 340.132 666.951 339.966 666.852 339.821C666.835 339.797 666.805 339.787 666.785 339.766C666.932 339.575 667.102 339.403 667.291 339.252C667.662 338.971 668.059 338.725 668.477 338.516C668.577 338.462 668.717 338.424 668.812 338.362C668.959 338.386 669.107 338.401 669.256 338.406C669.808 338.409 670.353 338.28 670.842 338.03C671.332 337.779 671.751 337.416 672.064 336.97C672.377 336.525 672.573 336.011 672.636 335.474C672.7 334.937 672.627 334.393 672.426 333.889C672.579 333.853 672.724 333.787 672.85 333.696C672.977 333.604 673.084 333.489 673.165 333.356C673.33 333.075 673.429 332.761 673.454 332.437C673.481 332.313 673.482 332.185 673.458 332.06C673.433 331.936 673.384 331.817 673.313 331.711C673.186 331.591 673.04 331.491 672.881 331.416C672.662 331.282 672.478 331.099 672.344 330.883C672.248 330.729 672.18 330.561 672.094 330.401C671.952 330.106 671.73 329.855 671.453 329.675C671.175 329.495 670.852 329.392 670.519 329.379C670.202 329.419 669.889 329.48 669.581 329.562C668.527 329.743 667.38 329.197 666.401 329.623C666.161 329.738 665.937 329.884 665.736 330.057C665.46 330.28 665.196 330.514 664.942 330.76C664.721 330.944 664.554 331.182 664.457 331.45C664.324 331.939 664.641 332.485 664.439 332.951C664.371 333.084 664.288 333.21 664.194 333.328C663.972 333.646 664.213 334.891 664.189 335.276C664.16 335.464 664.209 335.656 664.325 335.809C664.354 335.838 664.388 335.863 664.424 335.883C662.783 336.457 661.178 337.124 659.617 337.883C657.744 338.77 656.189 340.192 655.157 341.961C654.892 342.467 654.691 343.002 654.451 343.52C654.131 344.21 653.745 344.868 653.359 345.525C652.888 346.326 652.416 347.129 651.872 347.884C651.561 348.284 651.274 348.702 651.011 349.133C651.004 349.196 651.002 349.26 651.005 349.323C651.016 349.382 651.01 349.444 650.988 349.5C650.964 349.533 650.933 349.56 650.898 349.58C650.862 349.6 650.823 349.612 650.782 349.616L650.769 349.648C650.646 350.036 650.544 350.43 650.463 350.829C650.303 351.463 650.046 352.074 649.948 352.72C649.89 352.801 649.859 352.896 649.856 352.995C649.854 353.093 649.881 353.19 649.934 353.274C649.988 353.357 650.065 353.423 650.156 353.464C650.248 353.505 650.35 353.519 650.449 353.503C651.013 353.749 651.557 354.037 652.099 354.327C652.091 354.366 652.079 354.404 652.074 354.443C652.056 354.854 652.157 355.262 652.366 355.618C652.574 355.975 652.882 356.267 653.253 356.46C654.001 356.834 654.82 357.052 655.658 357.1C655.984 357.138 656.311 357.156 656.636 357.188C657.111 357.447 657.617 357.647 658.142 357.785C658.257 357.818 658.375 357.836 658.495 357.839C658.654 357.829 658.809 357.784 658.949 357.707C659.088 357.63 659.208 357.523 659.3 357.395C662.102 357.547 664.912 357.49 667.705 357.227C668.478 357.051 669.291 357.174 669.973 357.571C670.579 358.053 670.701 358.908 671.151 359.532C671.478 359.917 671.845 360.268 672.247 360.579C673.045 361.405 673.75 362.313 674.351 363.286C674.958 364.269 675.837 365.063 676.886 365.577C677.075 365.282 677.349 365.049 677.673 364.907C677.757 364.858 677.837 364.801 677.92 364.748C678.03 364.925 678.159 365.089 678.304 365.239C678.412 365.354 678.52 365.474 678.62 365.599C678.617 365.599 678.615 365.597 678.611 365.598C678.465 365.62 678.415 365.8 678.399 365.944C678.334 366.497 678.27 367.05 678.205 367.603C678.182 367.713 678.19 367.826 678.228 367.931C678.297 368.045 678.405 368.133 678.532 368.179C679.057 368.425 679.624 368.572 680.204 368.61C680.496 368.63 680.79 368.622 681.081 368.647C681.559 368.708 682.032 368.8 682.497 368.924C683.763 369.206 685.065 369.306 686.361 369.22C686.628 369.214 686.893 369.164 687.144 369.075C687.441 368.935 687.705 368.735 687.918 368.488C688.188 368.238 688.388 367.924 688.499 367.576C688.551 367.402 688.547 367.216 688.488 367.043C688.428 366.871 688.316 366.721 688.166 366.614Z" fill="#313244"/>
<path d="M667.321 329.562C667.446 329.541 667.569 329.507 667.693 329.476C667.296 329.428 666.893 329.466 666.513 329.588C666.783 329.612 667.054 329.603 667.321 329.562Z" fill="#F38BA8"/>
<path d="M669.834 330.401C669.92 330.561 669.988 330.729 670.083 330.883C670.217 331.099 670.401 331.282 670.621 331.416C670.78 331.491 670.925 331.591 671.052 331.711C671.124 331.817 671.173 331.936 671.197 332.06C671.222 332.185 671.22 332.313 671.194 332.437C671.169 332.761 671.07 333.075 670.904 333.356C670.824 333.489 670.717 333.604 670.59 333.696C670.463 333.787 670.319 333.853 670.166 333.89C670.398 334.426 670.478 335.015 670.398 335.592C670.318 336.17 670.081 336.716 669.712 337.173C669.342 337.63 668.854 337.982 668.298 338.191C667.742 338.4 667.139 338.459 666.552 338.362C666.456 338.424 666.317 338.462 666.216 338.516C665.799 338.725 665.402 338.971 665.03 339.252C664.841 339.403 664.671 339.575 664.525 339.766C664.545 339.787 664.574 339.797 664.592 339.821C664.691 339.966 664.755 340.132 664.78 340.305C664.732 341.004 664.757 341.706 664.856 342.4C664.852 342.715 664.806 343.027 664.719 343.329C664.725 343.389 664.719 343.45 664.701 343.508C664.683 343.566 664.653 343.619 664.613 343.665C664.568 343.79 664.519 343.914 664.466 344.036C664.486 344.057 664.506 344.078 664.526 344.097C664.617 344.184 664.684 344.292 664.721 344.41C664.757 344.529 664.763 344.655 664.737 344.777C664.704 344.874 664.681 344.975 664.669 345.078C664.682 345.203 664.719 345.325 664.78 345.436C664.785 345.448 664.785 345.461 664.79 345.473C665.272 345.399 665.755 345.328 666.24 345.274C666.479 345.247 666.719 345.231 666.96 345.228C666.942 345.18 666.931 345.129 666.929 345.078C666.941 344.975 666.964 344.874 666.998 344.777C667.024 344.655 667.018 344.529 666.981 344.41C666.944 344.292 666.877 344.184 666.787 344.097C666.767 344.078 666.747 344.057 666.727 344.036C666.78 343.914 666.829 343.79 666.873 343.665C666.913 343.619 666.943 343.566 666.961 343.508C666.98 343.45 666.986 343.389 666.979 343.329C667.067 343.027 667.113 342.715 667.117 342.4C667.018 341.706 666.992 341.004 667.041 340.305C667.016 340.132 666.951 339.966 666.852 339.821C666.835 339.797 666.805 339.787 666.785 339.766C666.932 339.575 667.102 339.403 667.291 339.252C667.662 338.971 668.059 338.725 668.477 338.516C668.577 338.462 668.717 338.424 668.812 338.362C668.959 338.386 669.107 338.401 669.256 338.406C669.808 338.409 670.353 338.28 670.842 338.03C671.332 337.779 671.751 337.416 672.064 336.97C672.377 336.525 672.573 336.011 672.636 335.474C672.7 334.937 672.627 334.393 672.426 333.89C672.579 333.853 672.724 333.787 672.85 333.696C672.977 333.604 673.084 333.489 673.165 333.356C673.33 333.075 673.429 332.761 673.454 332.437C673.481 332.313 673.482 332.185 673.458 332.06C673.433 331.936 673.384 331.817 673.313 331.711C673.186 331.591 673.04 331.491 672.881 331.416C672.662 331.282 672.478 331.099 672.344 330.883C672.248 330.729 672.18 330.561 672.094 330.401C671.952 330.106 671.73 329.855 671.452 329.675C671.175 329.495 670.852 329.392 670.519 329.379C670.202 329.419 669.889 329.48 669.581 329.562C669.409 329.589 669.234 329.6 669.059 329.596C669.388 329.79 669.656 330.069 669.834 330.401Z" fill="#F38BA8"/>
<path d="M688.166 366.614C688.026 366.541 687.874 366.493 687.716 366.472C686.93 366.35 686.15 366.187 685.381 365.983C684.609 365.778 683.899 365.392 683.314 364.858C683.095 364.607 682.852 364.378 682.586 364.175C682.451 364.075 682.29 364.016 682.121 364.004C681.953 363.992 681.785 364.029 681.637 364.108C681.606 364.132 681.578 364.158 681.553 364.186C681.445 364.117 681.337 364.047 681.23 363.978C680.656 363.608 680.079 363.242 679.5 362.881L679.476 362.866C679.493 362.777 679.494 362.686 679.478 362.597C679.377 362.304 679.172 362.055 678.901 361.896C679.649 361.889 680.4 361.822 681.143 361.745C681.851 361.757 682.535 361.496 683.047 361.017C683.124 360.934 683.17 360.828 683.179 360.716C683.18 360.487 682.939 360.337 682.722 360.25C682.434 360.135 682.134 360.048 681.828 359.992C681.614 359.963 681.402 359.919 681.194 359.862C681.008 359.796 680.83 359.714 680.66 359.616C680.292 359.417 679.923 359.219 679.555 359.02C679.398 358.946 679.254 358.848 679.128 358.73C678.94 358.536 678.857 358.261 678.666 358.07C678.49 357.894 677.777 357.662 677.676 358.023C677.635 358.165 677.789 358.323 677.808 358.482C677.561 358.331 677.306 358.193 677.043 358.071C677.057 358.039 677.076 358.01 677.088 357.977C675.866 357.018 674.895 355.787 674.256 354.387C674.365 354.39 674.475 354.396 674.584 354.396C674.771 354.412 674.957 354.368 675.115 354.269C675.18 354.211 675.231 354.139 675.263 354.06C675.296 353.98 675.309 353.894 675.303 353.808C675.289 353.637 675.246 353.469 675.176 353.311C675.02 352.839 674.771 352.402 674.443 352.023C674.125 351.723 673.763 351.471 673.368 351.276L673.304 351.241C673.278 351.162 673.253 351.081 673.221 351.003C672.983 350.519 672.714 350.051 672.415 349.6C671.994 348.845 671.684 348.037 671.493 347.198C671.423 346.687 671.223 346.201 670.912 345.785C670.337 345.165 669.351 345.18 668.5 345.274C668.31 345.295 668.122 345.326 667.932 345.352C668.207 345.431 668.456 345.58 668.651 345.785C668.963 346.201 669.163 346.687 669.233 347.198C669.424 348.037 669.734 348.845 670.154 349.6C670.453 350.051 670.722 350.519 670.96 351.003C670.993 351.081 671.017 351.162 671.044 351.241L671.108 351.276C671.502 351.471 671.864 351.723 672.182 352.023C672.51 352.402 672.759 352.839 672.916 353.311C672.986 353.469 673.028 353.637 673.043 353.808C673.049 353.894 673.035 353.98 673.003 354.06C672.97 354.139 672.919 354.211 672.855 354.269C672.697 354.368 672.51 354.412 672.324 354.396C672.214 354.396 672.105 354.39 671.995 354.387C672.634 355.787 673.606 357.018 674.828 357.977C674.816 358.01 674.797 358.039 674.783 358.071C675.045 358.193 675.301 358.331 675.547 358.482C675.529 358.323 675.375 358.165 675.415 358.023C675.517 357.662 676.229 357.894 676.406 358.07C676.597 358.261 676.68 358.536 676.867 358.73C676.994 358.848 677.138 358.946 677.295 359.02C677.663 359.219 678.031 359.417 678.4 359.616C678.569 359.714 678.748 359.796 678.933 359.862C679.142 359.919 679.353 359.963 679.568 359.992C679.874 360.048 680.173 360.135 680.462 360.25C680.678 360.337 680.92 360.487 680.919 360.716C680.91 360.828 680.863 360.934 680.786 361.017C680.274 361.496 679.59 361.757 678.883 361.745C678.14 361.822 677.388 361.889 676.641 361.896C676.912 362.055 677.116 362.304 677.218 362.597C677.233 362.686 677.233 362.777 677.216 362.866L677.24 362.881C677.819 363.242 678.395 363.608 678.969 363.978C679.077 364.047 679.185 364.117 679.292 364.186C679.318 364.158 679.346 364.132 679.376 364.108C679.524 364.029 679.692 363.992 679.861 364.004C680.029 364.016 680.191 364.075 680.325 364.175C680.591 364.378 680.835 364.607 681.053 364.858C681.639 365.392 682.348 365.778 683.12 365.983C683.89 366.187 684.669 366.35 685.456 366.472C685.613 366.493 685.765 366.541 685.905 366.614C686.055 366.721 686.167 366.871 686.227 367.043C686.287 367.216 686.291 367.402 686.239 367.576C686.127 367.924 685.927 368.238 685.657 368.489C685.445 368.735 685.181 368.935 684.884 369.075C684.7 369.143 684.506 369.185 684.31 369.198C684.992 369.257 685.677 369.264 686.361 369.22C686.628 369.214 686.893 369.165 687.144 369.075C687.441 368.935 687.705 368.735 687.918 368.489C688.188 368.238 688.388 367.924 688.499 367.576C688.551 367.402 688.547 367.216 688.488 367.043C688.428 366.871 688.315 366.721 688.166 366.614Z" fill="#F38BA8"/>
<path d="M675.631 364.767C675.668 364.8 675.704 364.835 675.742 364.867C675.714 364.827 675.684 364.789 675.659 364.749L675.631 364.767Z" fill="#F38BA8"/>
<path d="M709.289 358.637C709.289 366.451 705.729 364.296 701.339 364.296C696.948 364.296 693.388 366.451 693.388 358.637C693.388 350.822 701.339 335.998 701.339 335.998C701.339 335.998 709.289 350.822 709.289 358.637Z" fill="#F38BA8"/>
<path opacity="0.1" d="M704.952 361.627C704.952 365.179 703.334 364.199 701.339 364.199C699.343 364.199 697.725 365.179 697.725 361.627C697.725 358.074 701.339 351.336 701.339 351.336C701.339 351.336 704.952 358.074 704.952 361.627Z" fill="black"/>
<path d="M711.304 337.756C711.304 337.756 712.955 336.075 712.922 334.426L711.304 337.756Z" fill="#F38BA8"/>
<path d="M694.378 323.748C694.378 323.748 693.688 321.515 692.203 320.736L694.378 323.748Z" fill="#F38BA8"/>
<path d="M677.801 293.507C677.801 293.507 677.111 291.275 675.626 290.496L677.801 293.507Z" fill="#F38BA8"/>
<path d="M697.391 334.074C697.391 334.074 696.702 331.841 695.217 331.063L697.391 334.074Z" fill="#F38BA8"/>
<path d="M695.131 297.933C695.131 297.933 694.441 295.7 692.956 294.921L695.131 297.933Z" fill="#F38BA8"/>
<path d="M690.61 311.209C690.61 311.209 689.921 308.977 688.435 308.198L690.61 311.209Z" fill="#F38BA8"/>
<path d="M709.797 360.621C709.797 360.621 711.448 358.94 711.415 357.291L709.797 360.621Z" fill="#F38BA8"/>
<path d="M712.811 348.082C712.811 348.082 714.462 346.401 714.429 344.752L712.811 348.082Z" fill="#F38BA8"/>
<path d="M692.177 345.974L674.094 351.874L674.332 352.574L692.416 346.674L692.177 345.974Z" fill="#F38BA8"/>
<path d="M690.864 346.677C691.543 349.274 690.404 348.654 689.364 348.864C688.325 349.075 688.529 350.012 687.1 347.44C686.112 345.661 687.561 345.463 688.601 345.253C689.64 345.042 690.401 344.904 690.864 346.677Z" fill="#F38BA8"/>
<path opacity="0.1" d="M433.051 205.014L433.051 205.013L416.61 190.216L416.463 190.252L409.879 184.394L409.561 184.303L409.904 184.175L339.891 121.162L272.276 60.3056L237.822 78.1947L235.004 78.8054L276.293 139.803L432.554 370.664H617.099L433.051 205.014Z" fill="#F5C2E7"/>
<path d="M252.259 88.1726C263.495 88.1726 272.603 79.2566 272.603 68.2581C272.603 57.2596 263.495 48.3436 252.259 48.3436C241.023 48.3436 231.915 57.2596 231.915 68.2581C231.915 79.2566 241.023 88.1726 252.259 88.1726Z" fill="#F5C2E7"/>
</g>
<defs>
<clipPath id="clip0_3_2">
<rect width="764" height="371" fill="white"/>
</clipPath>
</defs>
</svg>
