<svg width="32" height="33" viewBox="0 0 32 33" fill="none" xmlns="http://www.w3.org/2000/svg">
<path d="M26.7333 26.8125H5.26665C4.73331 26.8125 4.27776 26.6177 3.89998 26.2281C3.5222 25.8385 3.33331 25.3687 3.33331 24.8187V8.18125C3.33331 7.63125 3.5222 7.16146 3.89998 6.77188C4.27776 6.38229 4.73331 6.1875 5.26665 6.1875H26.7333C27.2666 6.1875 27.7222 6.38229 28.1 6.77188C28.4778 7.16146 28.6666 7.63125 28.6666 8.18125V24.8187C28.6666 25.3687 28.4778 25.8385 28.1 26.2281C27.7222 26.6177 27.2666 26.8125 26.7333 26.8125ZM4.83331 10.5875V24.8187C4.83331 24.9333 4.87776 25.0365 4.96665 25.1281C5.05553 25.2198 5.15554 25.2656 5.26665 25.2656H26.7333C26.8444 25.2656 26.9444 25.2198 27.0333 25.1281C27.1222 25.0365 27.1666 24.9333 27.1666 24.8187V10.5875H4.83331Z" fill="#F38BA8"/>
</svg>
